<?xml version="1.0" encoding="utf-8"?>
<!-- Generator: Adobe Illustrator 21.1.0, SVG Export Plug-In . SVG Version: 6.00 Build 0)  -->
<svg version="1.1" id="Capa_1" xmlns="http://www.w3.org/2000/svg" xmlns:xlink="http://www.w3.org/1999/xlink" x="0px" y="0px"
	 viewBox="0 0 512 512" style="enable-background:new 0 0 512 512;" xml:space="preserve">
<style type="text/css">
	.st0{fill:url(#SVGID_1_);stroke:#1E0075;stroke-width:18;stroke-miterlimit:10;}
	.st1{fill:none;stroke:#000000;stroke-miterlimit:10;}
	.st2{fill:url(#SVGID_2_);}
	.st3{fill:url(#SVGID_3_);}
	.st4{fill:none;stroke:#C14200;stroke-width:6;stroke-miterlimit:10;}
</style>
<linearGradient id="SVGID_1_" gradientUnits="userSpaceOnUse" x1="183.0781" y1="83.8819" x2="183.0781" y2="439.12">
	<stop  offset="0" style="stop-color:#0090FF"/>
	<stop  offset="1" style="stop-color:#003394"/>
</linearGradient>
<polygon class="st0" points="344.2,83.9 172,83.9 22,83.9 22,273.7 22,436.3 22,437.7 22,439.1 344.1,439.1 344.1,436.3 
	167.9,260.1 "/>
<path class="st1" d="M210.1,149.2"/>
<g>
	<g>
		<linearGradient id="SVGID_2_" gradientUnits="userSpaceOnUse" x1="208.4284" y1="244.8226" x2="502.1649" y2="244.8226">
			<stop  offset="0" style="stop-color:#FF8900"/>
			<stop  offset="1" style="stop-color:#C757BC"/>
		</linearGradient>
		<polygon class="st2" points="391.1,298.1 335.4,354.4 321.5,339.1 302,319.4 298.7,316.1 357.7,264.3 347.1,253.5 346.8,253.3 
			332.7,239 278.1,295.4 271.6,288.8 243.8,261.8 263.3,242.4 300.6,207.8 280.7,186.5 208.4,258.1 274.8,325.1 341.2,392.1 
			413.4,320.5 		"/>
		<linearGradient id="SVGID_3_" gradientUnits="userSpaceOnUse" x1="208.4284" y1="244.8226" x2="502.1649" y2="244.8226">
			<stop  offset="0" style="stop-color:#FF8900"/>
			<stop  offset="1" style="stop-color:#C757BC"/>
		</linearGradient>
		<polygon class="st3" points="369,205.3 420.4,152.3 502.2,234.8 428.4,305.7 407.2,284.4 459.2,233 424.6,199.3 372.7,249.5 
			295.6,171.7 366.1,97.5 390.4,120.9 334.6,171.8 		"/>
	</g>
	<g>
		<polygon class="st1" points="391.1,298.1 335.4,354.4 321.5,339.1 302,319.4 298.7,316.1 357.7,264.3 347.1,253.5 346.8,253.3 
			332.7,239 278.1,295.4 271.6,288.8 243.8,261.8 263.3,242.4 300.6,207.8 280.7,186.5 208.4,258.1 274.8,325.1 341.2,392.1 
			413.4,320.5 		"/>
		<polygon class="st1" points="369,205.3 420.4,152.3 502.2,234.8 428.4,305.7 407.2,284.4 459.2,233 424.6,199.3 372.7,249.5 
			295.6,171.7 366.1,97.5 390.4,120.9 334.6,171.8 		"/>
	</g>
	<g>
		<polygon class="st4" points="391.1,298.1 335.4,354.4 321.5,339.1 302,319.4 298.7,316.1 357.7,264.3 347.1,253.5 346.8,253.3 
			332.7,239 278.1,295.4 271.6,288.8 243.8,261.8 263.3,242.4 300.6,207.8 280.7,186.5 208.4,258.1 274.8,325.1 341.2,392.1 
			413.4,320.5 		"/>
		<polygon class="st4" points="369,205.3 420.4,152.3 502.2,234.8 428.4,305.7 407.2,284.4 459.2,233 424.6,199.3 372.7,249.5 
			295.6,171.7 366.1,97.5 390.4,120.9 334.6,171.8 		"/>
	</g>
</g>
</svg>
