<?xml version="1.0" encoding="utf-8"?>
<!-- Generator: Adobe Illustrator 16.0.0, SVG Export Plug-In . SVG Version: 6.00 Build 0)  -->
<!DOCTYPE svg PUBLIC "-//W3C//DTD SVG 1.1//EN" "http://www.w3.org/Graphics/SVG/1.1/DTD/svg11.dtd">
<svg version="1.1" id="Capa_1" xmlns="http://www.w3.org/2000/svg" xmlns:xlink="http://www.w3.org/1999/xlink" x="0px" y="0px"
	 width="512px" height="512px" viewBox="0 0 512 512" enable-background="new 0 0 512 512" xml:space="preserve">
<linearGradient id="SVGID_1_" gradientUnits="userSpaceOnUse" x1="-1.9995" y1="398.8633" x2="158.929" y2="577.0905" gradientTransform="matrix(1.0281 0 0 -1.0281 27.7874 551.3538)">
	<stop  offset="0" style="stop-color:#00AFFF"/>
	<stop  offset="0.0994" style="stop-color:#13A4FF"/>
	<stop  offset="0.403" style="stop-color:#4A86FF"/>
	<stop  offset="0.6651" style="stop-color:#7270FF"/>
	<stop  offset="0.8727" style="stop-color:#8A62FF"/>
	<stop  offset="1" style="stop-color:#935DFF"/>
</linearGradient>
<polygon fill="url(#SVGID_1_)" points="16.653,14.653 16.653,272.563 263.492,14.653 "/>
<linearGradient id="SVGID_2_" gradientUnits="userSpaceOnUse" x1="321.9629" y1="506.6416" x2="-5.8573" y2="142.1263" gradientTransform="matrix(1.0281 0 0 -1.0281 27.7874 551.3538)">
	<stop  offset="0" style="stop-color:#FF8900"/>
	<stop  offset="1" style="stop-color:#C757BC"/>
</linearGradient>
<polygon fill="url(#SVGID_2_)" points="497.457,14.653 263.492,14.653 16.653,272.563 16.653,495.457 "/>
<linearGradient id="SVGID_3_" gradientUnits="userSpaceOnUse" x1="194.1875" y1="19.0176" x2="327.123" y2="172.9641" gradientTransform="matrix(1.0281 0 0 -1.0281 27.7874 551.3538)">
	<stop  offset="0" style="stop-color:#00AFFF"/>
	<stop  offset="1" style="stop-color:#8764FF"/>
</linearGradient>
<polygon fill="url(#SVGID_3_)" points="258.99,253.209 16.653,495.457 16.653,497.348 499.347,497.348 499.347,493.566 "/>
<g>
	<g enable-background="new    ">
		<path d="M254.419,463.189V439.16h24.03v24.029H254.419z"/>
		<path d="M355.666,434.286l23.943,4.02c-3.078,8.779-7.939,15.464-14.579,20.053c-6.642,4.589-14.952,6.884-24.927,6.884
			c-15.792,0-27.479-5.159-35.061-15.479c-5.986-8.265-8.979-18.697-8.979-31.297c0-15.051,3.934-26.837,11.801-35.359
			s17.814-12.784,29.844-12.784c13.511,0,24.17,4.461,31.981,13.382c7.81,8.923,11.544,22.591,11.202,41.004h-60.201
			c0.172,7.127,2.109,12.67,5.815,16.632c3.705,3.963,8.323,5.943,13.853,5.943c3.763,0,6.927-1.026,9.492-3.078
			C352.417,442.153,354.354,438.848,355.666,434.286z M357.035,410.001c-0.172-6.955-1.967-12.242-5.388-15.863
			c-3.421-3.619-7.583-5.43-12.485-5.43c-5.245,0-9.577,1.911-12.998,5.729c-3.42,3.82-5.102,9.008-5.045,15.563H357.035z"/>
		<path d="M392.01,437.279l24.114-3.677c1.026,4.675,3.106,8.224,6.242,10.646c3.135,2.424,7.525,3.635,13.169,3.635
			c6.213,0,10.889-1.14,14.024-3.421c2.108-1.595,3.163-3.732,3.163-6.413c0-1.824-0.57-3.335-1.709-4.532
			c-1.197-1.14-3.878-2.194-8.039-3.164c-19.383-4.275-31.669-8.18-36.855-11.715c-7.184-4.902-10.775-11.716-10.775-20.438
			c0-7.867,3.107-14.479,9.321-19.839c6.214-5.358,15.849-8.038,28.903-8.038c12.428,0,21.663,2.023,27.706,6.071
			c6.042,4.048,10.204,10.034,12.485,17.957l-22.661,4.19c-0.97-3.534-2.809-6.242-5.516-8.124
			c-2.708-1.881-6.571-2.821-11.587-2.821c-6.328,0-10.86,0.884-13.597,2.65c-1.825,1.255-2.736,2.88-2.736,4.874
			c0,1.711,0.798,3.164,2.395,4.361c2.165,1.597,9.647,3.849,22.446,6.756s21.734,6.471,26.809,10.688
			c5.016,4.276,7.525,10.233,7.525,17.872c0,8.324-3.479,15.479-10.433,21.464c-6.956,5.986-17.245,8.979-30.87,8.979
			c-12.371,0-22.162-2.509-29.373-7.525C398.949,452.701,394.232,445.888,392.01,437.279z"/>
	</g>
	<g enable-background="new    ">
		<path fill="none" stroke="#FFFFFF" stroke-width="5" d="M254.419,463.189V439.16h24.03v24.029H254.419z"/>
		<path fill="none" stroke="#FFFFFF" stroke-width="5" d="M355.666,434.286l23.943,4.02c-3.078,8.779-7.939,15.464-14.579,20.053
			c-6.642,4.589-14.952,6.884-24.927,6.884c-15.792,0-27.479-5.159-35.061-15.479c-5.986-8.265-8.979-18.697-8.979-31.297
			c0-15.051,3.934-26.837,11.801-35.359s17.814-12.784,29.844-12.784c13.511,0,24.17,4.461,31.981,13.382
			c7.81,8.923,11.544,22.591,11.202,41.004h-60.201c0.172,7.127,2.109,12.67,5.815,16.632c3.705,3.963,8.323,5.943,13.853,5.943
			c3.763,0,6.927-1.026,9.492-3.078C352.417,442.153,354.354,438.848,355.666,434.286z M357.035,410.001
			c-0.172-6.955-1.967-12.242-5.388-15.863c-3.421-3.619-7.583-5.43-12.485-5.43c-5.245,0-9.577,1.911-12.998,5.729
			c-3.42,3.82-5.102,9.008-5.045,15.563H357.035z"/>
		<path fill="none" stroke="#FFFFFF" stroke-width="5" d="M392.01,437.279l24.114-3.677c1.026,4.675,3.106,8.224,6.242,10.646
			c3.135,2.424,7.525,3.635,13.169,3.635c6.213,0,10.889-1.14,14.024-3.421c2.108-1.595,3.163-3.732,3.163-6.413
			c0-1.824-0.57-3.335-1.709-4.532c-1.197-1.14-3.878-2.194-8.039-3.164c-19.383-4.275-31.669-8.18-36.855-11.715
			c-7.184-4.902-10.775-11.716-10.775-20.438c0-7.867,3.107-14.479,9.321-19.839c6.214-5.358,15.849-8.038,28.903-8.038
			c12.428,0,21.663,2.023,27.706,6.071c6.042,4.048,10.204,10.034,12.485,17.957l-22.661,4.19c-0.97-3.534-2.809-6.242-5.516-8.124
			c-2.708-1.881-6.571-2.821-11.587-2.821c-6.328,0-10.86,0.884-13.597,2.65c-1.825,1.255-2.736,2.88-2.736,4.874
			c0,1.711,0.798,3.164,2.395,4.361c2.165,1.597,9.647,3.849,22.446,6.756s21.734,6.471,26.809,10.688
			c5.016,4.276,7.525,10.233,7.525,17.872c0,8.324-3.479,15.479-10.433,21.464c-6.956,5.986-17.245,8.979-30.87,8.979
			c-12.371,0-22.162-2.509-29.373-7.525C398.949,452.701,394.232,445.888,392.01,437.279z"/>
	</g>
</g>
</svg>
