<?xml version="1.0" encoding="utf-8"?>
<!-- Generator: Adobe Illustrator 21.1.0, SVG Export Plug-In . SVG Version: 6.00 Build 0)  -->
<svg version="1.1" id="Capa_1" xmlns="http://www.w3.org/2000/svg" xmlns:xlink="http://www.w3.org/1999/xlink" x="0px" y="0px"
	 viewBox="0 0 512 512" style="enable-background:new 0 0 512 512;" xml:space="preserve">
<style type="text/css">
	.st0{fill:url(#SVGID_1_);}
	.st1{fill:#FFFFFF;}
	.st2{fill:none;stroke:#1E0075;stroke-width:18;stroke-miterlimit:10;}
	.st3{fill:none;stroke:#000000;stroke-miterlimit:10;}
	.st4{fill:url(#SVGID_2_);}
	.st5{fill:url(#SVGID_3_);}
	.st6{fill:none;stroke:#C14200;stroke-width:6;stroke-miterlimit:10;}
</style>
<g>
	
		<linearGradient id="SVGID_1_" gradientUnits="userSpaceOnUse" x1="183.9854" y1="433.6001" x2="183.9854" y2="70.9453" gradientTransform="matrix(1 0 0 -1 0 512)">
		<stop  offset="0" style="stop-color:#0090FF"/>
		<stop  offset="1" style="stop-color:#003394"/>
	</linearGradient>
	<polygon class="st0" points="13.5,441.1 13.5,78.4 354.5,78.4 174.4,258.4 354.2,441.1 	"/>
	<path class="st1" d="M336.4,85.9L163.8,258.4l172.5,175.2H21v-1.4v-1.4V271.7V85.9h146.8H336.4 M372.6,70.9h-36.2H167.8H21H6v15
		v185.8v159.1v1.4v1.4v15h15h315.3h35.8L346.9,423l-162-164.6L347,96.5L372.6,70.9L372.6,70.9z"/>
	<polygon class="st2" points="336.4,85.9 167.8,85.9 21,85.9 21,271.7 21,430.8 21,432.2 21,433.6 336.3,433.6 336.3,433.6 
		163.8,258.4 	"/>
</g>
<path class="st3" d="M205.1,149.8"/>
<g>
	
		<linearGradient id="SVGID_2_" gradientUnits="userSpaceOnUse" x1="249.6195" y1="279.4142" x2="360.6521" y2="168.3815" gradientTransform="matrix(1 0 0 -1 0 512)">
		<stop  offset="0" style="stop-color:#FF8900"/>
		<stop  offset="1" style="stop-color:#C757BC"/>
	</linearGradient>
	<polygon class="st4" points="192.8,256.3 274.4,175.6 304.2,207.5 248.9,260.1 271.7,282.4 326.1,229.2 359.3,261.5 305.3,314.3 
		327.9,338 382.3,285 414.7,317.5 333.4,398.2 	"/>
	<path class="st1" d="M274.2,186.3l19.5,20.8L238.1,260l33.6,32.9l54.4-53.2l22.5,21.8l-53.8,52.7l33,34.6l54.5-53.1l21.8,21.9
		l-70.7,70.1l-130-131.2L274.2,186.3 M274.6,164.8l-11,10.9l-70.8,70.1l-10.7,10.6l10.6,10.7l130,131.2l10.6,10.7l10.7-10.6
		l70.7-70.1l10.7-10.6l-10.6-10.7L392.9,285l-10.5-10.5l-10.6,10.4l-43.7,42.6l-12.3-12.9l43.2-42.3l11-10.8L359,250.7l-22.5-21.8
		L326,218.7l-10.4,10.2l-43.9,43l-12-11.7L304,218l10.8-10.2l-10.2-10.9l-19.5-20.8L274.6,164.8L274.6,164.8z"/>
</g>
<g>
	
		<linearGradient id="SVGID_3_" gradientUnits="userSpaceOnUse" x1="327.0249" y1="372.6889" x2="453.7772" y2="245.9366" gradientTransform="matrix(1 0 0 -1 0 512)">
		<stop  offset="0" style="stop-color:#FF8900"/>
		<stop  offset="1" style="stop-color:#C757BC"/>
	</linearGradient>
	<polygon class="st5" points="387.4,282.1 438.2,231.9 415,209.3 364.1,258.5 278.3,171.9 357.6,88.6 392.5,122.3 337.9,172.1 
		360.5,194.1 410.9,142.1 501.7,233.7 418.7,313.5 	"/>
	<path class="st1" d="M357.8,99.2l23.8,22.9L327,171.9l33.7,32.8l50.3-51.9l80.1,80.7L418.8,303L398,282.1l50.9-50.3l-33.9-33
		L364.3,248l-75.5-76.1L357.8,99.2 M357.3,77.9l-10.4,10.9l-69,72.6l-10,10.6l10.2,10.3l75.5,76.1l10.4,10.5l10.7-10.3l40.3-39
		l12.5,12.2l-40,39.6l-10.7,10.6l10.6,10.7l20.7,20.8l10.4,10.4l10.6-10.2l72.2-69.4l11-10.6L501.7,223l-80.1-80.7l-10.8-10.9
		l-10.6,11l-39.8,41.1l-11.5-11.2l42.9-39.1l11.8-10.8L392,111.3l-23.8-22.9L357.3,77.9L357.3,77.9z"/>
</g>
<g>
	<polygon class="st3" points="382.3,295.6 327.7,348.7 327.7,348.7 298,317.4 294.8,314.1 348.6,261.5 339.2,251.9 338.9,251.7 
		326.1,239.7 271.7,292.9 265.3,286.4 238.1,260 257.2,241 293.7,207.2 274.2,186.3 203.4,256.4 268.4,322 333.4,387.6 404.1,317.5 
			"/>
	<polygon class="st3" points="360.6,204.7 410.9,152.8 491,233.6 418.8,303 398,282.1 448.9,231.8 415,198.8 364.3,248 288.8,171.8 
		357.8,99.2 381.6,122.1 327,171.9 	"/>
</g>
<polygon class="st6" points="382.3,295.6 327.7,348.7 327.7,348.7 294.8,314.1 294.8,314.1 348.6,261.5 348.6,261.5 348.6,261.5 
	326.1,239.7 271.7,292.9 271.7,292.9 238.1,260 238.1,260 293.7,207.2 274.2,186.3 203.4,256.4 268.4,322 333.4,387.6 404.1,317.5 
	"/>
<polygon class="st6" points="360.6,204.7 410.9,152.8 491,233.6 418.8,303 398,282.1 448.9,231.8 415,198.8 364.3,248 288.8,171.8 
	357.8,99.2 381.6,122.1 327,171.9 "/>
</svg>
