<?xml version="1.0" encoding="utf-8"?>
<!-- Generator: Adobe Illustrator 21.1.0, SVG Export Plug-In . SVG Version: 6.00 Build 0)  -->
<svg version="1.1" id="Capa_1" xmlns="http://www.w3.org/2000/svg" xmlns:xlink="http://www.w3.org/1999/xlink" x="0px" y="0px"
	 viewBox="0 0 512 512" style="enable-background:new 0 0 512 512;" xml:space="preserve">
<style type="text/css">
	.st0{fill:url(#SVGID_1_);}
	.st1{fill:#FFFFFF;}
	.st2{fill:none;stroke:#1E0075;stroke-width:18;stroke-miterlimit:10;}
	.st3{fill:none;stroke:#000000;stroke-miterlimit:10;}
	.st4{fill:url(#SVGID_2_);}
	.st5{fill:#F2EFF2;}
	.st6{fill:none;stroke:#6A2A0A;stroke-width:9;}
	.st7{fill:url(#SVGID_3_);}
</style>
<g>
	<linearGradient id="SVGID_1_" gradientUnits="userSpaceOnUse" x1="184" y1="78.4" x2="184" y2="441.1">
		<stop  offset="0" style="stop-color:#0090FF"/>
		<stop  offset="1" style="stop-color:#003394"/>
	</linearGradient>
	<polygon class="st0" points="13.5,441.1 13.5,78.4 354.5,78.4 174.4,258.4 354.2,441.1 	"/>
	<path class="st1" d="M336.4,85.9L163.8,258.4l172.5,175.2H21v-1.4v-1.4V271.7V85.9h146.8H336.4 M372.6,70.9h-36.2H167.8H21H6v15
		v185.8v159.1v1.4v1.4v15h15h315.3h35.8L346.9,423l-162-164.6L347,96.5L372.6,70.9L372.6,70.9z"/>
	<polygon class="st2" points="336.4,85.9 167.8,85.9 21,85.9 21,271.7 21,430.8 21,432.2 21,433.6 336.3,433.6 336.3,433.6 
		163.8,258.4 	"/>
</g>
<path class="st3" d="M205.1,149.8"/>
<g>
	<g>
		
			<linearGradient id="SVGID_2_" gradientUnits="userSpaceOnUse" x1="387.92" y1="-102.5109" x2="560.3546" y2="69.9241" gradientTransform="matrix(0.7071 -0.7071 0.7218 0.7218 -61.0388 643.207)">
			<stop  offset="0" style="stop-color:#FF8900"/>
			<stop  offset="1" style="stop-color:#C757BC"/>
		</linearGradient>
		<polygon class="st4" points="190,259.5 266.4,183.1 301.6,218.3 256.1,263.8 278.6,286.3 324.1,240.8 359.3,276 313.8,321.5 
			336.3,344 381.8,298.5 417,333.7 340.6,410.1 		"/>
		<path class="st5" d="M266.4,189.5l28.8,28.8l-45.5,45.5l28.8,28.8l45.5-45.5L353,276l-45.5,45.5l28.8,28.8l45.5-45.5l28.8,28.8
			l-70,70L196.4,259.5L266.4,189.5 M266.4,176.8l-6.4,6.4l-70,70l-6.4,6.4l6.4,6.4l144.2,144.2l6.4,6.4l6.4-6.4l70-70l6.4-6.4
			l-6.4-6.4l-28.8-28.8l-6.4-6.4l-6.4,6.4l-39.2,39.2l-16.1-16.1l39.2-39.2l6.4-6.4l-6.4-6.4l-28.8-28.8l-6.4-6.4l-6.4,6.4
			L278.6,280l-16.1-16.1l39.2-39.2l6.4-6.4l-6.4-6.4l-28.8-28.8L266.4,176.8L266.4,176.8z"/>
		<polygon class="st6" points="196.4,259.5 266.4,189.5 295.3,218.3 249.8,263.8 278.6,292.7 324.1,247.2 353,276 307.4,321.5 
			336.3,350.4 381.8,304.9 410.6,333.7 340.6,403.7 		"/>
	</g>
	<g>
		
			<linearGradient id="SVGID_3_" gradientUnits="userSpaceOnUse" x1="506.7496" y1="-102.5115" x2="679.1846" y2="69.9238" gradientTransform="matrix(0.7071 -0.7071 0.7218 0.7218 -61.0388 643.207)">
			<stop  offset="0" style="stop-color:#FF8900"/>
			<stop  offset="1" style="stop-color:#C757BC"/>
		</linearGradient>
		<polygon class="st7" points="389.4,290.9 433.6,246.6 411.2,224.2 367,268.4 274.1,175.5 350.5,99.1 385.7,134.3 340.2,179.8 
			362.6,202.3 408.1,156.8 501,249.7 424.7,326.1 		"/>
		<path class="st5" d="M350.5,105.5l28.8,28.8l-45.5,45.5l28.8,28.8l45.5-45.5l86.5,86.5l-70,70l-28.8-28.8l44.2-44.2l-28.8-28.8
			L367,262l-86.5-86.5L350.5,105.5 M350.5,92.7l-6.4,6.4l-70,70l-6.4,6.4l6.4,6.4l86.5,86.5l6.4,6.4l6.4-6.4l37.8-37.8l16.1,16.1
			l-37.8,37.8l-6.4,6.4l6.4,6.4l28.8,28.8l6.4,6.4l6.4-6.4l70-70l6.4-6.4l-6.4-6.4l-86.5-86.5l-6.4-6.4l-6.4,6.4l-39.2,39.2
			l-16.1-16.1l39.2-39.2l6.4-6.4l-6.4-6.4l-28.8-28.8L350.5,92.7L350.5,92.7z"/>
		<polygon class="st6" points="280.4,175.5 350.5,105.5 379.3,134.3 333.8,179.8 362.6,208.7 408.1,163.1 494.7,249.7 424.6,319.7 
			395.8,290.9 440,246.6 411.2,217.8 367,262 		"/>
	</g>
</g>
</svg>
